{"title":"Cuban.Fury.2014.480p.BRRip.XviD.AC3-N3kr4","uid":10337703,"size":1954764493,"categoryP":"video","categoryS":"hd___movies","magnet":"?xt=urn:btih:e773acfc875f06d182c983076fe24285ec0cd4bf&amp;dn=Cuban.Fury.2014.480p.BRRip.XviD.AC3-N3kr4&amp;tr=udp%3A%2F%2Ftracker.openbittorrent.com%3A80&amp;tr=udp%3A%2F%2Fopen.demonii.com%3A1337&amp;tr=udp%3A%2F%2Ftracker.coppersurfer.tk%3A6969&amp;tr=udp%3A%2F%2Fexodus.desync.com%3A6969","seeders":1,"leechers":0,"uploader":"Falcon.G13","files":2,"time":1402501773,"description":"Cuban Fury (2014)\n 98 min - Comedy - 11 April 2014 (USA)\n6.4 Your rating: -/10 Ratings: 6.4/10 from 1,721 users Metascore: 52/100 \nReviews: 11 user | 79 critic | 21 from Metacritic.com\n\nBeneath Bruce Garrett's under-confident, overweight exterior,\n the passionate heart of a salsa king lies dormant.\n Now, one woman is about to reignite his Latin fire.\n &lt;a href=&quot;\nhttp://i.imgur.com/2O6fsBO.jpg&quot; rel=&quot;nofollow&quot; target=&quot;_NEW&quot;&gt;\nhttp://i.imgur.com/2O6fsBO.jpg&lt;/a&gt; &lt;a href=&quot;\nhttp://i.imgur.com/fC730Bi.jpg&quot; rel=&quot;nofollow&quot; target=&quot;_NEW&quot;&gt;\nhttp://i.imgur.com/fC730Bi.jpg&lt;/a&gt; &lt;a href=&quot;\nhttp://i.imgur.com/ItqX2Bl.jpg&quot; rel=&quot;nofollow&quot; target=&quot;_NEW&quot;&gt;\nhttp://i.imgur.com/ItqX2Bl.jpg&lt;/a&gt; &lt;a href=&quot;\nhttp://i.imgur.com/m3PqJj2.jpg&quot; rel=&quot;nofollow&quot; target=&quot;_NEW&quot;&gt;\nhttp://i.imgur.com/m3PqJj2.jpg&lt;/a&gt; &lt;a href=&quot;\nhttp://i.imgur.com/g5f2Vlx.jpg&quot; rel=&quot;nofollow&quot; target=&quot;_NEW&quot;&gt;\nhttp://i.imgur.com/g5f2Vlx.jpg&lt;/a&gt; &lt;a href=&quot;\nhttp://i.imgur.com/f8VnUPo.jpg&quot; rel=&quot;nofollow&quot; target=&quot;_NEW&quot;&gt;\nhttp://i.imgur.com/f8VnUPo.jpg&lt;/a&gt;\n\nGeneral\nComplete name : Cuban.Fury.2014.480p.XviD.AC3-N3kr4.avi\nFormat : AVI\nFormat/Info : Audio Video Interleave\nFormat profile : OpenDML\nFile size : 1.82 GiB\nDuration : 1h 37mn\nOverall bit rate : 2 662 Kbps\nWriting application : Lavf55.7.100\n\nVideo\nID : 0\nFormat : MPEG-4 Visual\nFormat profile : Advanced Simple@L1\nFormat settings, BVOP : No\nFormat settings, QPel : No\nFormat settings, GMC : No warppoints\nFormat settings, Matrix : Default (H.263)\nCodec ID : XVID\nCodec ID/Hint : XviD\nDuration : 1h 37mn\nBit rate : 2 011 Kbps\nWidth : 720 pixels\nHeight : 304 pixels\nDisplay aspect ratio : 2.35:1\nFrame rate : 23.976 fps\nColor space : YUV\nChroma subsampling : 4:2:0\nBit depth : 8 bits\nScan type : Progressive\nCompression mode : Lossy\nBits/(Pixel*Frame) : 0.383\nStream size : 1.38 GiB (76%)\nWriting library : Lavc55.12.100\n\nAudio\nID : 1\nFormat : AC-3\nFormat/Info : Audio Coding 3\nMode extension : CM (complete main)\nFormat settings, Endianness : Big\nCodec ID : 2000\nDuration : 1h 37mn\nBit rate mode : Constant\nBit rate : 640 Kbps\nChannel(s) : 6 channels\nChannel positions : Front: L C R, Side: L R, LFE\nSampling rate : 48.0 KHz\nBit depth : 16 bits\nCompression mode : Lossy\nStream size : 448 MiB (24%)\nAlignment : Aligned on interleaves\nInterleave, duration : 32 ms (0.77 video frame)\nInterleave, preload duration : 32 ms","torrent":{"xt":"urn:btih:e773acfc875f06d182c983076fe24285ec0cd4bf","amp;dn":"Cuban.Fury.2014.480p.BRRip.XviD.AC3-N3kr4","amp;tr":["udp%3A%2F%2Ftracker.openbittorrent.com%3A80","udp%3A%2F%2Fopen.demonii.com%3A1337","udp%3A%2F%2Ftracker.coppersurfer.tk%3A6969","udp%3A%2F%2Fexodus.desync.com%3A6969"],"infoHash":"e773acfc875f06d182c983076fe24285ec0cd4bf","infoHashBuffer":{"type":"Buffer","data":[231,115,172,252,135,95,6,209,130,201,131,7,111,226,66,133,236,12,212,191]},"announce":[],"urlList":[]}}